<svg width="125px" height="48px" viewBox="0 0 558 216" version="1.1" xmlns:xlink="http://www.w3.org/1999/xlink" xmlns="http://www.w3.org/2000/svg"><defs><linearGradient x1="-5.9604645E-08" y1="0.50001127" x2="0.9998835" y2="0.50001127" id="gradient_1"><stop offset="0" stop-color="#1662BB"></stop><stop offset="1" stop-color="#001461"></stop></linearGradient><linearGradient x1="-0.0010643005" y1="0.4999685" x2="0.9994688" y2="0.4999685" id="gradient_2"><stop offset="0" stop-color="#1662BB"></stop><stop offset="1" stop-color="#001461"></stop></linearGradient><linearGradient x1="0.28919595" y1="0.96111727" x2="0.95366067" y2="0.14440942" id="gradient_3"><stop offset="0" stop-color="#1662BB"></stop><stop offset="1" stop-color="#001461"></stop></linearGradient><radialGradient gradientUnits="objectBoundingBox" cx="11305%" cy="11502%" fx="11305%" fy="11502%" r="4844.9995%" gradientTransform="translate(113.05,115.02),translate(-113.05,-115.02)" id="gradient_4"><stop offset="0%" stop-color="#1662BB"></stop><stop offset="100%" stop-color="#001461"></stop></radialGradient><linearGradient x1="0.5008644" y1="-0.0030596459" x2="0.49880165" y2="0.9857679" id="gradient_5"><stop offset="0" stop-color="#1662BB"></stop><stop offset="1" stop-color="#001461"></stop></linearGradient><path d="M0 0L557.9 0L557.9 215.71L0 215.71L0 0Z" id="path_1"></path><rect width="557.9" height="215.80002" id="slice_1"></rect><clipPath id="clip_1"><use xlink:href="#slice_1" clip-rule="evenodd"></use></clipPath><clipPath id="mask_1"><use xlink:href="#path_1"></use></clipPath></defs><g id="Slice" clip-path="url(#clip_1)"><use xlink:href="#slice_1" stroke="none" fill="none"></use><g id="logo" transform="translate(0.049987793 0.04498291)"><path d="M0 0L557.9 0L557.9 215.71L0 215.71L0 0Z" id="Background" fill="none" fill-rule="evenodd" stroke="none"></path><g clip-path="url(#mask_1)"><g id="图层_2" transform="translate(-0.008728027 0)"><g id="图层_1-2"><path d="M1 1C0.670789 0.483168 0.336465 0.148817 0 0C0 0 0 0 0 0L1 1Z" transform="translate(131.6087 38.56)" id="Shape" fill="#FFFFFF" fill-opacity="0.23" fill-rule="evenodd" stroke="none"></path><path d="M0 0L1 1C0.687249 0.586519 0.36964 0.319028 0.0499975 0.199969C0.0499975 0.199969 0.0166573 0 0 0L0 0Z" transform="translate(131.57872 38.540005)" id="Shape" fill="#FFFFFF" fill-opacity="0.41" fill-rule="evenodd" stroke="none"></path><path d="M147.07 120.483C147.07 119.973 147.07 119.483 147.07 118.963C147.07 118.703 147.07 118.443 147.07 118.183C147.07 117.923 147.07 117.663 147.07 117.393C147.07 77.3227 123.89 42.6127 90.01 25.5127C75.4802 13.8281 57.3851 7.47519 38.7399 7.51271C25.1787 7.46682 11.8351 10.9215 0 17.5427C44.9781 -12.3808 105.336 -3.19097 139.37 38.7627C152.099 64.0719 154.847 93.2414 147.07 120.483L147.07 120.483Z" transform="translate(73.93873 23.23729)" id="Shape" fill="#FFFFFF" fill-rule="evenodd" stroke="none"></path><path d="M56.4699 92.2399C56.4699 93.0499 56.4699 93.8699 56.4699 94.6799C52.1565 109.611 44.795 123.486 34.8499 135.43C28.5117 143.245 20.6356 149.674 11.7099 154.32C8.50664 155.944 5.19159 157.338 1.79002 158.49C27.7057 133.403 38.4632 96.5038 30.0899 61.4199C29.5218 37.5322 18.5271 15.0897 0 0C34.4758 17.8917 56.2135 53.3989 56.4699 92.2399L56.4699 92.2399Z" transform="translate(164.53882 49.180073)" id="Shape" fill="#FFFFFF" fill-rule="evenodd" stroke="none"></path><path d="M110.72 23.72C110.73 51.3687 99.5105 77.841 79.6335 97.0666C51.9321 106.546 21.2588 99.8716 0 79.74C24.9971 88.1348 52.5069 83.9836 73.9138 68.5865C95.3207 53.1894 108.007 28.429 108 2.05998C108 1.37 108 0.669998 108 0C109.837 7.77203 110.75 15.7338 110.72 23.72L110.72 23.72Z" transform="translate(86.63875 110.60002)" id="Shape" fill="#FFFFFF" fill-rule="evenodd" stroke="none"></path><path d="M0 0C0 0.259995 0 0.520004 0 0.779999C0 1.28999 0 1.78 0 2.3C1.33149 2.3466 1.33149 2.39342 0 2.44C0 1.63 0 0.809998 0 0L0 0Z" transform="translate(221.00871 141.42)" id="Shape" fill="#FFFFFF" fill-opacity="0.72" fill-rule="evenodd" stroke="none"></path><path d="M57.04 91.88C57.04 92.15 57.04 92.4 57.04 92.67C56.7782 53.8234 35.0282 18.3144 0.540924 0.430481C0.360001 0.279999 0.189987 0.139999 0 0C33.85 17.1 57.04 51.81 57.04 91.88L57.04 91.88Z" transform="translate(163.96872 48.750004)" id="Shape" fill="#FFFFFF" fill-opacity="0.72" fill-rule="evenodd" stroke="none"></path><path d="M0 48.45C0 21.6918 21.6918 0 48.45 0C75.2082 0 96.9 21.6918 96.9 48.45C96.9 75.2082 75.2082 96.9 48.45 96.9C21.6918 96.9 0 75.2082 0 48.45Z" transform="translate(64.60873 66.56999)" id="Circle" fill="#FFFFFF" fill-rule="evenodd" stroke="none"></path><path d="M112.669 3.8147e-06C59.4097 -0.00355148 13.4254 37.2922 2.43556 89.4051C-8.55427 141.518 18.4537 194.207 67.1787 215.71C42.7787 196.71 26.8187 165.44 26.8187 130C26.7844 115.208 29.6474 100.545 35.2462 86.846C42.6699 67.6198 56.2832 51.4122 73.9387 40.78C90.9387 30.36 110.509 23.24 131.939 23.24C163.527 23.1952 193.439 37.4438 213.309 62C194.172 23.9775 155.236 -0.00946426 112.669 3.8147e-06L112.669 3.8147e-06Z" id="Shape" fill="#FFFFFF" fill-rule="evenodd" stroke="none"></path><g id="Group" transform="translate(246.83562 112.89998)"><path d="M0 23.97L0 24.97C0.309342 24.6245 0.643099 24.2907 1 23.97L0 23.97ZM49.6 0.296298L32.49 0.296298C30.05 0.296298 28.16 0.296298 26.82 0C27.6646 0.669907 28.5262 1.00509 29.39 0.999943L56.92 1C53.73 0.555581 51.29 0.296298 49.6 0.296298L49.6 0.296298Z" transform="translate(0.49310303 32.30002)" id="Shape" fill="#FFFFFF" fill-rule="evenodd" stroke="none"></path><path d="M76.4931 62.1C76.1631 66.95 75.5631 70.37 74.6631 72.34C73.9368 74.0495 72.9482 75.6352 71.7331 77.04C70.3334 78.4134 68.6792 79.5004 66.8631 80.24C64.6531 81.24 61.4231 81.72 57.1731 81.72L24.0831 81.72C18.6431 81.72 14.5831 81.29 11.8531 80.44C9.89777 79.9148 8.01878 79.1383 6.26308 78.13C5.10123 77.3062 4.08694 76.2919 3.26312 75.13C2.56232 74.1317 2.02554 73.0278 1.6731 71.86C4.0844 74.5751 7.54185 76.1291 11.1731 76.13L42.3731 76.13C45.7563 76.1433 49.0062 74.8114 51.4069 72.4275C53.8077 70.0436 55.1625 66.8033 55.1731 63.42C55.1714 62.9489 55.1447 62.4783 55.0931 62.01C55.9031 60.63 56.1531 58.37 55.8331 55.17C55.6888 53.7014 55.2024 52.2869 54.4131 51.04C53.541 49.8067 52.0773 49.1321 50.5731 49.27L22.9131 49.27C18.4131 49.27 15.3564 49.27 13.7431 49.27C11.9161 49.203 10.1195 48.7819 8.45309 48.03C6.56241 47.2369 4.93105 45.9311 3.74306 44.26C2.4223 42.4071 1.4747 40.3149 0.953079 38.1C0.283905 35.3682 -0.0353088 32.5624 0.00309753 29.75L0.00308228 18.25C0.043457 15.5253 0.51947 12.8245 1.41309 10.2501C2.25095 7.54583 4.02321 5.2277 6.41307 3.71C9.27948 2.00458 12.4985 0.97834 15.8231 0.710007C19.4722 0.2537 23.1455 0.0166092 26.8231 7.62939e-06L53.5331 0C56.1855 0.00308228 58.8325 0.240677 61.4431 0.709999C63.5467 1.01211 65.5789 1.68952 67.4431 2.71C68.8316 3.57402 70.0404 4.6979 71.0031 6.02C71.976 7.33913 72.6949 8.82781 73.1231 10.41C73.5486 12.0857 73.7934 13.8022 73.8531 15.53L73.8531 16.04C72.1454 10.6937 67.1655 7.07414 61.5531 7.10003L30.0231 7.10002C29.8031 7.10002 29.5831 7.10002 29.3631 7.10002C24.2167 7.31833 19.7054 10.6072 17.9231 15.44C17.6255 16.2282 17.4143 17.0463 17.2931 17.88C17.1953 18.522 17.1485 19.1707 17.1531 19.82C17.148 23.4637 18.7067 26.9339 21.4334 29.3503C21.7141 29.8984 22.0938 30.3898 22.5531 30.8C23.4065 31.5677 24.4742 32.0562 25.6131 32.2C26.1711 32.26 26.7319 32.29 27.2931 32.29L27.2931 32.29C28.1377 32.4709 28.9992 32.5614 29.8631 32.56L57.3931 32.56L58.3931 32.61C61.5088 32.6553 64.5923 33.2476 67.503 34.36C69.9288 35.3853 71.9813 37.1306 73.3831 39.36C75.0819 42.2806 76.075 45.5577 76.2831 48.93C76.7046 53.3074 76.7749 57.7114 76.4931 62.1L76.4931 62.1Z" id="Shape" fill="#FFFFFF" fill-rule="evenodd" stroke="none"></path><path d="M0.470001 0C0.73999 0 0.98999 0.714332 1.25 1C0.839996 1 0.420013 0 0 0L0.470001 0Z" transform="translate(61.0831 7.1000214)" id="Shape" fill="#FFFFFF" fill-rule="evenodd" stroke="none"></path></g><path d="M83.46 0L83.46 57.84C83.46 65.06 81.3333 70.9533 77.08 75.52C72.8267 80.0867 67.2667 82.3767 60.4 82.39C52.28 82.39 46.0567 78.5833 41.73 70.97C39.6702 74.464 36.8379 77.44 33.45 79.67C30.4567 81.4833 26.6333 82.39 21.98 82.39C14.8933 82.39 9.45999 80.1233 5.67999 75.59C1.89999 71.0566 0.00668335 64.4533 0 55.78L0 0L7 0L7 55.64C6.87399 59.99 9.12274 64.0646 12.8704 66.2768C16.618 68.489 21.2719 68.489 25.0195 66.2768C28.7672 64.0646 31.0159 59.9901 30.89 55.6401L30.89 0L52.89 0L52.89 55.64C52.4976 60.1587 54.6865 64.5126 58.5475 66.893C62.4084 69.2733 67.2816 69.2733 71.1425 66.893C75.0035 64.5127 77.1924 60.1588 76.8 55.6401L76.8 0L83.46 0Z" transform="translate(332.60873 112.87001)" id="Shape" fill="#FFFFFF" fill-rule="evenodd" stroke="none"></path><path d="M59.23 31.17L59.23 84.49L41.49 84.49L41.49 29.61C41.4737 21.1341 34.6066 14.2667 26.1303 14.25L23.51 14.25C15.036 14.272 8.17197 21.136 8.14999 29.61L8.14999 84.49L0 84.49L0 32.05C0 21.8967 2.72665 14.02 8.17999 8.42C13.6333 2.82 21.3267 0.0133286 31.26 0C40.7933 0 47.8366 2.55666 52.39 7.67C56.9433 12.7833 59.2233 20.6167 59.23 31.17L59.23 31.17Z" transform="translate(427.94876 109.95001)" id="Shape" fill="#FFFFFF" fill-rule="evenodd" stroke="none"></path><path d="M51.08 8.62496C45.7565 2.98786 38.3021 -0.142067 30.55 0.00495911C24.8151 -0.0199509 19.1824 1.52222 14.26 4.46497C9.57697 7.08822 5.78473 11.0511 3.36996 15.8449C1.12332 20.4583 0 26.4083 0 33.695L0 85.845L23.95 85.845L23.95 31.045C23.9376 30.0666 24.0383 29.0901 24.2501 28.1349C24.593 25.5498 26.9006 23.6861 29.5 23.895C33.18 23.895 35.03 25.645 35.03 29.175C35.03 33.0149 32.6201 34.9549 27.8101 34.9549L27.8101 56.955L31.42 56.955C35.1422 57.0031 38.8505 56.4907 42.4201 55.4349C46.0695 54.3658 49.4049 52.427 52.14 49.785C56.9867 45.005 59.4134 38.385 59.42 29.9249C59.6328 21.9896 56.6243 14.3061 51.08 8.62496L51.08 8.62496Z" transform="translate(498.45874 108.59505)" id="Shape" fill="#FFFFFF" fill-rule="evenodd" stroke="none"></path><path d="M43.68 0C19.5562 1.90735e-06 3.05176e-05 19.5562 0 43.6799C-4.57764e-05 67.8037 19.5561 87.3599 43.6798 87.36C67.8036 87.3601 87.3599 67.804 87.36 43.6802C87.36 19.5561 67.8036 -0.000116348 43.6798 1.90735e-06L43.68 0ZM32.79 75C15.484 74.9779 1.47163 60.9327 1.49001 43.6267C1.50838 26.3208 15.5506 12.3054 32.8565 12.32C50.1625 12.3347 64.1809 26.3739 64.17 43.6798C64.1729 51.9989 60.8665 59.9781 54.98 65.8573C49.0935 71.7366 41.1103 75.0331 32.7906 75.02L32.79 75Z" transform="translate(240.83873 20.440004)" id="Shape" fill="#FFFFFF" fill-rule="evenodd" stroke="none"></path><path d="M31.3 4.19617e-05C13.9967 0.0221291 -0.0146637 14.0633 1.52588e-05 31.3666C0.0147095 48.67 14.0499 62.6873 31.3532 62.68C48.6566 62.6727 62.6799 48.6436 62.68 31.3402C62.6829 23.0212 59.3765 15.042 53.49 9.16271C47.6035 3.28344 39.6203 -0.0130768 31.3006 3.8147e-05L31.3 4.19617e-05ZM42.19 49.9C31.9396 49.9 23.63 41.5905 23.63 31.3401C23.63 21.0897 31.9396 12.7801 42.19 12.78C52.4404 12.78 60.75 21.0896 60.75 31.34C60.7524 36.2642 58.7976 40.9865 55.3161 44.4676C51.8347 47.9487 47.1122 49.903 42.189 49.9L42.19 49.9Z" transform="translate(242.3287 32.77996)" id="Shape" fill="#FFFFFF" fill-rule="evenodd" stroke="none"></path><path d="M43.7013 3.8147e-06C26.0326 -0.00808144 10.0991 10.6291 3.33197 26.9505C-3.43518 43.2719 0.296936 62.0627 12.7877 74.5593C25.2785 87.0558 44.0676 90.7966 60.3921 84.037C76.7167 77.2774 87.3612 61.3489 87.3613 43.6802C87.3613 19.5639 67.8171 0.0109348 43.7011 1.90735e-06L43.7013 3.8147e-06ZM32.8113 75C15.5027 75 1.47131 60.9687 1.47128 43.6601C1.47125 26.3515 15.5026 12.3201 32.8112 12.32C50.1198 12.32 64.1512 26.3513 64.1513 43.6598C64.1589 51.9776 60.8598 59.9556 54.981 65.8376C49.1022 71.7196 41.1259 75.023 32.8098 75.02L32.8113 75Z" transform="translate(330.64743 20.44)" id="Shape" fill="#FFFFFF" fill-rule="evenodd" stroke="none"></path><path d="M31.34 0C14.0314 -3.8147e-06 3.05176e-05 14.0314 0 31.34C-3.05176e-05 48.6485 14.0313 62.6799 31.3399 62.68C48.6485 62.6801 62.6799 48.6487 62.68 31.3402C62.6829 23.0281 59.382 15.055 53.5042 9.17688C47.6263 3.29876 39.6534 -0.00246429 31.3407 3.8147e-06L31.34 0ZM42.23 49.9C34.7232 49.9 27.9555 45.378 25.0828 38.4427C22.2101 31.5073 23.7979 23.5243 29.106 18.2161C34.4141 12.908 42.3971 11.3201 49.3325 14.1928C56.2679 17.0655 60.7899 23.8331 60.79 31.3399C60.79 41.5904 52.4803 49.9 42.2299 49.9L42.23 49.9Z" transform="translate(332.1187 32.780003)" id="Shape" fill="#FFFFFF" fill-rule="evenodd" stroke="none"></path><path d="M65 82.85L38.9 82.85L28.21 58.09L28.21 57.93C43.5524 57.8444 55.9206 45.3375 55.835 29.9951C55.7494 14.6526 43.2426 2.28448 27.9001 2.37C26.8473 2.37258 25.7955 2.43602 24.75 2.56L24.75 23.13L24.61 23.13L24.61 82.85L0 82.85L0 0L31.61 0C41.3167 0 48.9633 2.63667 54.55 7.91C60.1367 13.1833 62.9366 20.0567 62.95 28.53C62.95 37.2833 59.2633 44.57 51.89 50.39L65 82.85Z" transform="translate(426.00873 22.070004)" id="Shape" fill="#FFFFFF" fill-rule="evenodd" stroke="none"></path><path d="M13.04 8.43C13.2054 7.71529 13.286 6.98357 13.28 6.25C13.28 2.25 10.2567 0.25 4.20999 0.25L0 0.25C0.406403 0.121689 0.825531 0.0378647 1.25 0L7.57001 0C10.8837 0 13.57 2.68629 13.57 6C13.5708 6.83869 13.39 7.66768 13.04 8.42993L13.04 8.43Z" transform="translate(450.75873 45.000004)" id="Shape" fill="#FFFFFF" fill-opacity="0.29" fill-rule="evenodd" stroke="none"></path><path d="M30.1 0.999943L2.57001 0.999943C1.70618 1.00503 0.844666 0.669888 0 0C1.34 0.185229 3.23001 0.296321 5.67001 0.296321L22.78 0.296321C24.47 0.296321 26.91 0.555574 30.1 0.999943L30.1 0.999943Z" transform="translate(274.1487 145.19998)" id="Shape" fill="#FFFFFF" fill-rule="evenodd" stroke="none"></path><path d="M57.3003 12.73L57.3003 17.87L36.6503 17.87C36.5403 16.73 36.4103 16.25 36.2703 15.26C36.1121 14.284 35.7399 13.3551 35.1803 12.54C34.4013 11.5899 33.3569 10.8936 32.1803 10.54C30.1836 9.92653 28.0974 9.65604 26.0103 9.73997L12.6103 9.73999C9.41031 9.73999 7.33032 9.95999 6.31033 10.42C5.15045 11.0151 4.16757 11.9049 3.46036 13C2.59033 14.26 2.54031 16.44 3.33032 19.51C3.52982 20.4826 3.86652 21.422 4.33032 22.3C1.56894 19.9048 -0.0119019 16.4254 0.000305176 12.77C-0.00421143 12.1205 0.0426025 11.4718 0.140411 10.8298C0.275879 9.99911 0.486725 9.18246 0.770355 8.39C2.59149 3.56615 7.09146 0.274536 12.2403 7.62939e-06C12.4603 0 12.6803 0 12.9003 0L44.4303 0C44.7003 0 44.9503 0.050003 45.2103 0.0699997L45.2803 0.0699997C50.5425 0.388351 55.0733 3.89558 56.7003 8.91C57.1031 10.1431 57.3057 11.4328 57.3003 12.73L57.3003 12.73Z" transform="translate(263.9584 120)" id="Shape" fill="#FFFFFF" fill-rule="evenodd" stroke="none"></path><path d="M54.7653 7.20999C54.7599 14.2398 49.0654 19.9389 42.0355 19.95L10.7653 19.95C7.13408 19.9491 3.67662 18.3951 1.26532 15.68C1.03282 14.9474 0.839233 14.203 0.685349 13.45C0.18924 10.9716 -0.0387421 8.44711 0.00535583 5.91998L0.0653381 0.309998C0.121017 0.223633 0.181091 0.140182 0.245331 0.0599976L20.5953 0C20.4685 1.50977 20.5424 3.02971 20.8154 4.52C21.0106 5.42288 21.4302 6.26204 22.0353 6.96001C22.5481 7.55106 23.1736 8.03383 23.8754 8.38002C24.5776 8.71552 25.3471 8.88651 26.1253 8.88L43.6053 8.88C45.8298 8.95663 48.0568 8.85632 50.2653 8.58C51.7952 8.32913 53.1891 7.55083 54.2053 6.38002C54.3697 6.20781 54.5078 6.01237 54.6154 5.8C54.6903 6.26701 54.7404 6.73769 54.7653 7.21001L54.7653 7.20999Z" transform="translate(247.24338 169.11002)" id="Shape" fill="#FFFFFF" fill-rule="evenodd" stroke="none"></path><path d="M23.895 0.0499954L23.895 55.69C24.021 60.04 21.7723 64.1146 18.0247 66.3268C14.277 68.539 9.62311 68.539 5.87549 66.3268C2.12787 64.1146 -0.120911 60.0401 0.0050354 55.6901L0.0050354 0.0499954L16.505 0.0499954L16.505 52.18C16.4171 53.8642 16.596 55.5517 17.035 57.18C17.423 58.1445 18.4142 58.7244 19.445 58.59C21.815 58.59 22.995 56.59 22.995 52.5L22.995 0L23.895 0.0499954Z" transform="translate(339.6437 112.82001)" id="Shape" fill="#FFFFFF" fill-rule="evenodd" stroke="none"></path><path d="M23.9552 0L23.9552 55.64C24.3476 60.1587 22.1587 64.5126 18.2977 66.893C14.4368 69.2733 9.5636 69.2733 5.70264 66.893C1.84167 64.5127 -0.347259 60.1588 0.0451355 55.64L0.045166 0L0.525177 0L0.525177 52.13C0.405762 53.8594 0.626587 55.5955 1.1752 57.24C1.63193 58.1445 2.5965 58.6764 3.60516 58.58C5.88516 58.58 7.02518 56.42 7.02518 52.13L7.02518 0L23.9552 0Z" transform="translate(385.48355 112.87001)" id="Shape" fill="#FFFFFF" fill-rule="evenodd" stroke="none"></path><path d="M33.34 15.36L33.34 70.24L26.91 70.24L26.91 18.53C26.91 15.4 26.54 13.19 25.76 11.91C24.89 10.5731 23.3473 9.83266 21.76 9.98999C18.0133 9.99001 16.14 12.8367 16.14 18.53L16.14 28.93L22.98 28.93L22.98 50.58L16.14 50.58L16.14 70.24L0 70.24L0 15.36C0.0218811 6.8862 6.88583 0.0220795 15.3598 0L17.98 0C26.4562 0.01651 33.3235 6.88376 33.34 15.36L33.34 15.36Z" transform="translate(436.09872 124.2)" id="Shape" fill="#FFFFFF" fill-rule="evenodd" stroke="none"></path><path d="M30.08 30.11C30.1013 39.5367 25.6904 48.4254 18.1702 54.1099C14.6005 55.1657 10.8923 55.6782 7.17004 55.63L3.56006 55.63L3.56006 33.63C8.37006 33.63 10.78 31.69 10.78 27.85C10.78 24.32 8.93005 22.57 5.25 22.57C2.65057 22.3611 0.342896 24.2248 0 26.81L0 0C16.6153 0.0220642 30.0745 13.4947 30.08 30.11L30.08 30.11Z" transform="translate(522.7387 109.94)" id="Shape" fill="#FFFFFF" fill-rule="evenodd" stroke="none"></path><g id="Group" transform="translate(490.24872 23.330004)"><path d="M61.12 0L61.12 11.03L30.55 11.03L30.55 80.99L18.55 80.99L18.55 23.32L0 23.32L0 0L61.12 0L61.12 0Z" id="Polygon" fill="#FFFFFF" fill-rule="evenodd" stroke="none"></path></g><path d="M30.57 0L30.57 12.29L12.15 12.29L12.15 69.96L0 69.96L0 0L30.57 0L30.57 0Z" transform="translate(520.7987 34.360004)" id="Polygon" fill="#FFFFFF" fill-rule="evenodd" stroke="none"></path><path d="M30.95 27.78C30.9409 42.9928 18.6952 55.3693 3.48169 55.54L3.48001 33.72L5.48001 33.72C9.81 33.72 12.33 32.13 13.07 28.97C13.4152 28.2101 13.5925 27.3847 13.59 26.55C13.59 23.2363 10.9037 20.55 7.59 20.55L1.27002 20.55C0.842133 20.557 0.41626 20.6107 0 20.71L3.05176e-05 0.190004C1.04547 0.0660343 2.09723 0.0025959 3.14999 7.62939e-06C10.5211 -0.00530243 17.5923 2.91916 22.8063 8.1295C28.0204 13.3398 30.95 20.4088 30.95 27.78L30.95 27.78Z" transform="translate(450.7387 24.46)" id="Shape" fill="#FFFFFF" fill-rule="evenodd" stroke="none"></path></g></g></g></g></g></svg>